<?plantuml 1.2026.2?><svg xmlns="http://www.w3.org/2000/svg" xmlns:xlink="http://www.w3.org/1999/xlink" contentStyleType="text/css" data-diagram-type="DESCRIPTION" height="404px" preserveAspectRatio="none" style="width:1016px;height:404px;background:#FFFFFF;" version="1.1" viewBox="0 0 1016 404" width="1016px" zoomAndPan="magnify"><defs/><g><!--cluster Review Guardian--><g class="cluster" data-qualified-name="Review Guardian" data-source-line="8" id="ent0004"><rect fill="none" height="368" rx="2.5" ry="2.5" style="stroke:#181818;stroke-width:1;" width="761.09" x="249.09" y="30.3"/><text fill="#000000" font-family="sans-serif" font-size="14" font-weight="bold" lengthAdjust="spacing" textLength="113.5928" x="572.8386" y="46.8332">Review Guardian</text></g><!--entity UC1--><g class="entity" data-qualified-name="Review Guardian.UC1" data-source-line="9" id="ent0005"><ellipse cx="912.4613" cy="94.3012" fill="#F1F1F1" rx="81.7213" ry="27.5712" style="stroke:#181818;stroke-width:0.5;"/><text fill="#000000" font-family="sans-serif" font-size="14" lengthAdjust="spacing" textLength="112.834" x="856.0443" y="91.2742">Soumettre un avis</text><text fill="#000000" font-family="sans-serif" font-size="14" lengthAdjust="spacing" textLength="106.5996" x="859.1615" y="108.8836">(mode classique)</text></g><!--entity UC2--><g class="entity" data-qualified-name="Review Guardian.UC2" data-source-line="10" id="ent0006"><ellipse cx="630.7989" cy="94.3027" fill="#F1F1F1" rx="82.9389" ry="25.6127" style="stroke:#181818;stroke-width:0.5;"/><text fill="#000000" font-family="sans-serif" font-size="14" lengthAdjust="spacing" textLength="124.5029" x="568.5475" y="94.226">Consulter le r&#233;sultat</text><text fill="#000000" font-family="sans-serif" font-size="14" lengthAdjust="spacing" textLength="58.7139" x="601.442" y="111.8354">d'analyse</text></g><!--entity UC3--><g class="entity" data-qualified-name="Review Guardian.UC3" data-source-line="11" id="ent0007"><ellipse cx="348.9654" cy="93.3043" fill="#F1F1F1" rx="72.8054" ry="26.9343" style="stroke:#181818;stroke-width:0.5;"/><text fill="#000000" font-family="sans-serif" font-size="14" lengthAdjust="spacing" textLength="102.7168" x="297.607" y="91.2038">Analyser un avis</text><text fill="#000000" font-family="sans-serif" font-size="14" lengthAdjust="spacing" textLength="84.834" x="306.5484" y="108.8131">en mode chat</text></g><!--entity UC4--><g class="entity" data-qualified-name="Review Guardian.UC4" data-source-line="12" id="ent0008"><ellipse cx="348.9657" cy="181.2976" fill="#F1F1F1" rx="83.8857" ry="25.5976" style="stroke:#181818;stroke-width:0.5;"/><text fill="#000000" font-family="sans-serif" font-size="14" lengthAdjust="spacing" textLength="126.0615" x="285.9349" y="181.245">Consulter les d&#233;tails</text><text fill="#000000" font-family="sans-serif" font-size="14" lengthAdjust="spacing" textLength="58.7139" x="319.6087" y="198.8544">d'analyse</text></g><!--entity UC5--><g class="entity" data-qualified-name="Review Guardian.UC5" data-source-line="13" id="ent0009"><ellipse cx="348.9666" cy="268.299" fill="#F1F1F1" rx="76.4866" ry="26.589" style="stroke:#181818;stroke-width:0.5;"/><text fill="#000000" font-family="sans-serif" font-size="14" lengthAdjust="spacing" textLength="109.7168" x="294.1082" y="266.7128">Analyser des avis</text><text fill="#000000" font-family="sans-serif" font-size="14" lengthAdjust="spacing" textLength="82.4893" x="307.7219" y="284.3222">en lot via API</text></g><!--entity UC6--><g class="entity" data-qualified-name="Review Guardian.UC6" data-source-line="14" id="ent0010"><ellipse cx="348.9665" cy="356.2978" fill="#F1F1F1" rx="80.6165" ry="26.1078" style="stroke:#181818;stroke-width:0.5;"/><text fill="#000000" font-family="sans-serif" font-size="14" lengthAdjust="spacing" textLength="74.7031" x="311.615" y="350.151">Consulter la</text><text fill="#000000" font-family="sans-serif" font-size="14" lengthAdjust="spacing" textLength="118.2959" x="289.8186" y="367.7604">documentation API</text></g><!--entity User--><g class="entity" data-qualified-name="User" data-source-line="5" id="ent0002"><ellipse cx="104.0467" cy="14" fill="#F1F1F1" rx="8" ry="8" style="stroke:#181818;stroke-width:0.5;"/><path d="M104.0467,22 L104.0467,49 M91.0467,30 L117.0467,30 M104.0467,49 L91.0467,64 M104.0467,49 L117.0467,64" fill="none" style="stroke:#181818;stroke-width:0.5;"/><text fill="#000000" font-family="sans-serif" font-size="14" lengthAdjust="spacing" textLength="91.8135" x="58.14" y="80.0332">Utilisateur final</text></g><!--entity Admin--><g class="entity" data-qualified-name="Admin" data-source-line="6" id="ent0003"><ellipse cx="104.0444" cy="287" fill="#F1F1F1" rx="8" ry="8" style="stroke:#181818;stroke-width:0.5;"/><path d="M104.0444,295 L104.0444,322 M91.0444,303 L117.0444,303 M104.0444,322 L91.0444,337 M104.0444,322 L117.0444,337" fill="none" style="stroke:#181818;stroke-width:0.5;"/><text fill="#000000" font-family="sans-serif" font-size="14" lengthAdjust="spacing" textLength="196.0889" x="6" y="353.0332">Administrateur / Int&#233;grateur API</text></g><!--link User to UC1--><g class="link" data-entity-1="ent0002" data-entity-2="ent0005" data-link-type="dependency" data-source-line="17" id="lnk11"><path d="M150.22,30.43 C174.54,24.16 205.19,18.16 233.09,18.3 C321.88,18.74 344.23,14.98 432.86,20.3 C558.23,27.83 589.58,32.35 713.74,51.3 C758.19,58.08 801.781,67.4495 840.101,76.5095" fill="none" id="User-to-UC1" style="stroke:#181818;stroke-width:1;"/><polygon fill="#181818" points="845.94,77.89,838.1018,71.9265,841.0741,76.7396,836.2611,79.7119,845.94,77.89" style="stroke:#181818;stroke-width:1;"/></g><!--link User to UC2--><g class="link" data-entity-1="ent0002" data-entity-2="ent0006" data-link-type="dependency" data-source-line="18" id="lnk12"><path d="M150.38,44.02 C174.87,43.94 205.64,43.96 233.09,44.3 C321.9,45.41 344.74,38.24 432.86,49.3 C478.97,55.09 524.305,65.4226 562.905,75.5126" fill="none" id="User-to-UC2" style="stroke:#181818;stroke-width:1;"/><polygon fill="#181818" points="568.71,77.03,561.0142,70.8839,563.8725,75.7655,558.991,78.6239,568.71,77.03" style="stroke:#181818;stroke-width:1;"/></g><!--link User to UC3--><g class="link" data-entity-1="ent0002" data-entity-2="ent0007" data-link-type="dependency" data-source-line="19" id="lnk13"><path d="M150.17,53.4 C187.9,61.01 236.2884,70.7739 278.4384,79.2739" fill="none" id="User-to-UC3" style="stroke:#181818;stroke-width:1;"/><polygon fill="#181818" points="284.32,80.46,276.2883,74.7598,279.4187,79.4716,274.7069,82.6019,284.32,80.46" style="stroke:#181818;stroke-width:1;"/></g><!--link User to UC4--><g class="link" data-entity-1="ent0002" data-entity-2="ent0008" data-link-type="dependency" data-source-line="20" id="lnk14"><path d="M150.43,78.86 C176.18,97.56 209.49,120.24 241.09,137.3 C257.78,146.31 271.1463,152.4139 288.3863,159.3739" fill="none" id="User-to-UC4" style="stroke:#181818;stroke-width:1;"/><polygon fill="#181818" points="293.95,161.62,287.1019,154.5417,289.3136,159.7482,284.107,161.9599,293.95,161.62" style="stroke:#181818;stroke-width:1;"/></g><!--link Admin to UC5--><g class="link" data-entity-1="ent0003" data-entity-2="ent0009" data-link-type="dependency" data-source-line="22" id="lnk15"><path d="M202.45,297.65 C229.25,292.25 251.7884,287.6959 276.3384,282.7459" fill="none" id="Admin-to-UC5" style="stroke:#181818;stroke-width:1;"/><polygon fill="#181818" points="282.22,281.56,272.6069,279.4178,277.3186,282.5483,274.1882,287.26,282.22,281.56" style="stroke:#181818;stroke-width:1;"/></g><!--link Admin to UC6--><g class="link" data-entity-1="ent0003" data-entity-2="ent0010" data-link-type="dependency" data-source-line="23" id="lnk16"><path d="M202.45,332.94 C227.01,336.88 246.9958,340.0895 270.0558,343.7895" fill="none" id="Admin-to-UC6" style="stroke:#181818;stroke-width:1;"/><polygon fill="#181818" points="275.98,344.74,267.7274,339.3647,271.0431,343.9479,266.46,347.2637,275.98,344.74" style="stroke:#181818;stroke-width:1;"/></g><!--link UC2 to UC1--><g class="link" data-entity-1="ent0006" data-entity-2="ent0005" data-link-type="dependency" data-source-line="25" id="lnk17"><path d="M714.19,94.3 C750.93,94.3 788.07,94.3 824.62,94.3" fill="none" id="UC2-to-UC1" style="stroke:#181818;stroke-width:1;stroke-dasharray:7,7;"/><polygon fill="#181818" points="830.62,94.3,821.62,90.3,825.62,94.3,821.62,98.3,830.62,94.3" style="stroke:#181818;stroke-width:1;"/><text fill="#000000" font-family="sans-serif" font-size="13" lengthAdjust="spacing" textLength="55.6563" x="744.74" y="90.7951">&#171;include&#187;</text></g><!--link UC4 to UC2--><g class="link" data-entity-1="ent0008" data-entity-2="ent0006" data-link-type="dependency" data-source-line="26" id="lnk18"><path d="M408.98,162.96 C456.76,148.1 518.0006,129.0615 565.6306,114.2515" fill="none" id="UC4-to-UC2" style="stroke:#181818;stroke-width:1;stroke-dasharray:7,7;"/><polygon fill="#181818" points="571.36,112.47,561.5782,111.3226,566.5855,113.9546,563.9535,118.9619,571.36,112.47" style="stroke:#181818;stroke-width:1;"/><text fill="#000000" font-family="sans-serif" font-size="13" lengthAdjust="spacing" textLength="53.4917" x="463.86" y="126.5051">&#171;extend&#187;</text></g><?plantuml-src TP5DJW9148NtVOhARDG56FbnOSWaX8LXPoJis5IcYw52JpTsLuF4U23EmSLiXX77ACkNLw---Z6q5107dikLW6PFXR2pAgpPRj1Z1HiirbZIJFQ6u6IZBGsr2i8AjTknBM699f1IM8ZpaCs53GSKYXwMRD5aW07cWVntnLXNR3c8FnVTmzJAyL0sSlmohHDrbL8ND6Ilj6NQmND4hnbj1XyA80OgC2Htvc958fuWMi0jXuMzhPmcA0o6m6-HxiwJJ1xQiOcp8HeX3wSzZuUJG5bOVODfzdsW9jHhXyPdo_-WoC8Pja9f4lrhc03wU11a4_vY1lzYTCfSECO9R1alXvfFXbT8cFgx8ft5ffNIUrkHH_MfrEafqEdazKrQejSM_ROOA5N_fP73N-enTPpqeDkj6y8JZ4Pi2nCrvNbo1etJgnrw5x8wpxy0?></g></svg>